<svg width="139" height="19" viewBox="0 0 139 19" fill="none" xmlns="http://www.w3.org/2000/svg">
<path d="M32.1898 7.01352H20.5369L20.1193 7.38733V18.954H23.3251V14.6L23.619 14.2753H32.1898C34.3572 14.2753 35.3544 13.6226 35.3544 11.9497V9.29009C35.3544 7.66309 34.3572 7.01352 32.1898 7.01352ZM32.1898 11.2878C32.1898 12.0783 31.731 12.207 30.6899 12.207H23.674L23.3388 11.8823V9.43103L23.6328 9.10625H30.7119C31.7118 9.10625 32.2118 9.24413 32.2118 10.0255V11.2786L32.1898 11.2878Z" fill="white"/>
<path d="M41.277 9.1982L44.068 13.7513L43.9004 14.1711H37.736L36.1537 16.3527H45.3179L45.9826 16.7725L47.4001 18.954H51.1059L42.9856 6.87567" fill="white"/>
<path d="M78.0543 16.6315V13.3806L78.3894 13.0558H84.595V11.0121H74.7661V18.9541H89.2595V16.9104H78.4307" fill="white"/>
<path d="M89.3858 7.01663H74.7661V9.24724H89.3858V7.01663Z" fill="white"/>
<path d="M58.4816 9.15223H70.2691C70.1015 7.47928 69.1428 7.00742 66.8106 7.00742H58.3552C55.6906 7.00742 54.8555 7.56507 54.8555 9.84164V16.1658C54.8555 18.3964 55.6796 19 58.3552 19H66.8023C69.1758 19 70.0988 18.4883 70.1757 16.7694H58.4733L58.1382 16.3986V9.43106" fill="white"/>
<path d="M12.2051 11.6586H3.66729L3.41731 11.3338V9.29012L3.66729 9.05725H15.2048L15.3697 8.64055C14.9961 7.52524 13.9549 6.96759 12.0732 6.96759H4.04089C1.37626 6.96759 0.543913 7.52524 0.543913 9.80181V11.15C0.543913 13.3775 1.36802 13.9842 4.04089 13.9842H12.5814L12.8314 14.263V16.4078L12.6226 16.7326H0.293933C0.293933 16.7326 0 16.9195 0 16.9655C0.208775 18.5465 1.16749 18.9632 3.45852 18.9632H12.2051C14.8697 18.9632 15.746 18.4056 15.746 16.129V14.4928C15.746 12.2653 14.8697 11.6586 12.2051 11.6586Z" fill="white"/>
<path d="M98.591 6.96759H93.759L93.509 7.52524L98.841 11.8915C99.8409 11.2419 100.964 10.5923 102.137 9.93969" fill="white"/>
<path d="M102.923 15.1455L107.629 18.9541H112.461L112.67 18.4424L105.673 12.728C104.755 13.5185 103.797 14.309 102.926 15.1455" fill="white"/>
<path d="M97.8824 18.954H93.5091L93.1355 18.3045C96.0913 15.0964 109.343 1.45235 138.118 0C138.118 0 114.002 0.919207 97.8824 18.954" fill="#B2B0B2"/>
</svg>
